<svg id="Calque_3" data-name="Calque 3" xmlns="http://www.w3.org/2000/svg" viewBox="0 0 100 81.09"><defs><style>.cls-1{fill:#fff;}.cls-2{fill:#333;}.cls-3{fill:#a0d31b;}</style></defs><title>logo</title><path class="cls-1" d="M72,16a30.1,30.1,0,1,0-1.43,42.53A30.1,30.1,0,0,0,72,16Zm-.71,29.09a7.06,7.06,0,0,1-1.53,2.25,6.43,6.43,0,0,1-2.27,1.5,7.26,7.26,0,0,1-2.82.53H32.28a2.49,2.49,0,0,1-1.82-.74,2.44,2.44,0,0,1-.74-1.82,2.53,2.53,0,0,1,2.56-2.56H64.94a2,2,0,0,0,1.39-.57,1.82,1.82,0,0,0,.58-1.36,2,2,0,0,0-.58-1.44,1.91,1.91,0,0,0-1.39-.61H35.23a6.65,6.65,0,0,1-2.77-.55,6.9,6.9,0,0,1-2.26-1.53A7.4,7.4,0,0,1,28.67,36a6.65,6.65,0,0,1-.55-2.77,6.81,6.81,0,0,1,.55-2.79,7.66,7.66,0,0,1,1.53-2.25,7,7,0,0,1,2.26-1.51,6.66,6.66,0,0,1,2.77-.57H67.72a2.5,2.5,0,0,1,1.81.75,2.45,2.45,0,0,1,.76,1.81,2.42,2.42,0,0,1-.76,1.82,2.47,2.47,0,0,1-1.81.76H35.12a2.07,2.07,0,0,0-1.41.55,1.91,1.91,0,0,0,0,2.82,2,2,0,0,0,1.41.59H64.71a6.93,6.93,0,0,1,2.82.57,6.74,6.74,0,0,1,2.27,1.51,7.38,7.38,0,0,1,1.53,2.27,7.2,7.2,0,0,1,.56,2.82A6.82,6.82,0,0,1,71.33,45.13Z"/><path class="cls-2" d="M77.69,72H26a4,4,0,0,0-4,4v.75a4,4,0,0,0,4,4H77.69a4,4,0,0,0,4-4V76A4,4,0,0,0,77.69,72ZM32.54,77.45c.2.14.4.29.61.46a.9.9,0,0,1,.2.19.42.42,0,0,1,.08.26.45.45,0,0,1-.14.36.46.46,0,0,1-.36.16.53.53,0,0,1-.37-.16c-.29-.2-.58-.42-.89-.61a6.78,6.78,0,0,0-1-.53,6,6,0,0,0-1-.38,4.42,4.42,0,0,0-1.1-.12H26.47a.31.31,0,0,0-.23.12.38.38,0,0,0-.1.26v.9a.5.5,0,0,1-.87.36.45.45,0,0,1-.14-.36v-1a1.24,1.24,0,0,1,.1-.5,1.17,1.17,0,0,1,.27-.42,1,1,0,0,1,.4-.27,1.26,1.26,0,0,1,.51-.11H32a.34.34,0,0,0,.28-.11.33.33,0,0,0,.13-.28.29.29,0,0,0-.13-.26.34.34,0,0,0-.28-.12H25.63a.5.5,0,0,1-.36-.16.46.46,0,0,1-.14-.35.5.5,0,0,1,.5-.52H32a1.33,1.33,0,0,1,.56.11,1.74,1.74,0,0,1,.46.3,1.37,1.37,0,0,1,.3.45,1.42,1.42,0,0,1-.3,1.55,1.61,1.61,0,0,1-1,.43h0Zm6.23.75a.63.63,0,0,1-.47.19.64.64,0,0,1-.47-.19.69.69,0,0,1-.19-.48.62.62,0,0,1,.19-.45.64.64,0,0,1,.47-.19.63.63,0,0,1,.47.19.58.58,0,0,1,.19.45A.65.65,0,0,1,38.77,78.2Zm3.19.52a.46.46,0,0,1-.36.16.51.51,0,0,1-.41-.21l-2.47-3.29-.19-.2a.32.32,0,0,0-.23-.1.34.34,0,0,0-.23.1,2.3,2.3,0,0,0-.17.2l-2.5,3.3a.47.47,0,0,1-.39.2.52.52,0,0,1-.41-.83l2.59-3.47A1.39,1.39,0,0,1,38.3,74a1.55,1.55,0,0,1,.61.13,1.51,1.51,0,0,1,.47.39L42,78a.44.44,0,0,1,.1.16.38.38,0,0,1,0,.19A.46.46,0,0,1,42,78.72Zm9.38-1.8a.5.5,0,0,1-.36.16H44.19v1.28a.51.51,0,0,1-1,0V76.52a.4.4,0,0,1,.16-.38,1.14,1.14,0,0,1,.52-.1H51a.46.46,0,0,1,.36.16.45.45,0,0,1,.15.35A.48.48,0,0,1,51.34,76.92Zm.24-1.81a.51.51,0,0,1-.37.16H43.68a.5.5,0,0,1-.36-.16.47.47,0,0,1-.15-.35.5.5,0,0,1,.15-.37.49.49,0,0,1,.36-.15h7.53a.5.5,0,0,1,.37.15.53.53,0,0,1,.14.37A.5.5,0,0,1,51.58,75.11Zm5.21,3.09a.6.6,0,0,1-.46.19.63.63,0,0,1-.47-.19.65.65,0,0,1-.19-.48.58.58,0,0,1,.19-.45.63.63,0,0,1,.47-.19.6.6,0,0,1,.46.19.58.58,0,0,1,.19.45A.65.65,0,0,1,56.79,78.2Zm3.19.52a.46.46,0,0,1-.36.16.49.49,0,0,1-.4-.21l-2.48-3.29-.19-.2a.32.32,0,0,0-.22-.1.32.32,0,0,0-.23.1,1.46,1.46,0,0,0-.18.2l-2.5,3.3a.45.45,0,0,1-.39.2.51.51,0,0,1-.4-.83l2.58-3.47a1.35,1.35,0,0,1,.48-.4,1.4,1.4,0,0,1,.64-.15,1.54,1.54,0,0,1,.6.13,1.51,1.51,0,0,1,.47.39L60,78a.64.64,0,0,1,.11.16.38.38,0,0,1,0,.19A.46.46,0,0,1,60,78.72Zm9.47-.88a1,1,0,0,1-.29.74,1,1,0,0,1-.73.3.93.93,0,0,1-.29,0,.77.77,0,0,1-.26-.12l-4.87-3-.33-.19a.67.67,0,0,0-.22-.07c-.11,0-.18.07-.2.2a3,3,0,0,0,0,.59v2.09a.46.46,0,0,1-.15.36.45.45,0,0,1-.36.16.53.53,0,0,1-.51-.52V75.27a1,1,0,0,1,.3-.73,1,1,0,0,1,.72-.3,1.54,1.54,0,0,1,.3,0,2.06,2.06,0,0,1,.26.12l4.86,3,.34.19a.9.9,0,0,0,.22.07c.1,0,.17-.07.2-.21a3,3,0,0,0,0-.59V74.76a.5.5,0,0,1,.15-.37.51.51,0,0,1,.72,0,.5.5,0,0,1,.15.37Zm5.34.36a.64.64,0,0,1-.47.19.63.63,0,0,1-.47-.19.65.65,0,0,1-.19-.48.58.58,0,0,1,.19-.45.63.63,0,0,1,.47-.19.64.64,0,0,1,.47.19.62.62,0,0,1,.19.45A.69.69,0,0,1,74.79,78.2Zm3.18.52a.46.46,0,0,1-.36.16.49.49,0,0,1-.4-.21l-2.48-3.29-.18-.2a.34.34,0,0,0-.23-.1.32.32,0,0,0-.23.1,2.3,2.3,0,0,0-.17.2l-2.5,3.3a.48.48,0,0,1-.4.2.51.51,0,0,1-.4-.83l2.58-3.47a1.35,1.35,0,0,1,.48-.4,1.4,1.4,0,0,1,.64-.15,1.54,1.54,0,0,1,.6.13,1.51,1.51,0,0,1,.47.39L78,78a.46.46,0,0,1,.11.16.38.38,0,0,1,0,.19A.46.46,0,0,1,78,78.72Z"/><path class="cls-1" d="M75,77.72a.69.69,0,0,1-.19.48.64.64,0,0,1-.47.19.63.63,0,0,1-.47-.19.65.65,0,0,1-.19-.48.58.58,0,0,1,.19-.45.63.63,0,0,1,.47-.19.64.64,0,0,1,.47.19A.62.62,0,0,1,75,77.72Z"/><path class="cls-1" d="M78.12,78.36a.53.53,0,0,1-.51.52.49.49,0,0,1-.4-.21l-2.48-3.29-.18-.2a.34.34,0,0,0-.23-.1.32.32,0,0,0-.23.1,2.3,2.3,0,0,0-.17.2l-2.5,3.3a.48.48,0,0,1-.4.2.51.51,0,0,1-.4-.83l2.58-3.47a1.35,1.35,0,0,1,.48-.4,1.4,1.4,0,0,1,.64-.15,1.54,1.54,0,0,1,.6.13,1.51,1.51,0,0,1,.47.39L78,78a.46.46,0,0,1,.11.16A.38.38,0,0,1,78.12,78.36Z"/><path class="cls-1" d="M69.45,74.76v3.08a1,1,0,0,1-.29.74,1,1,0,0,1-.73.3.93.93,0,0,1-.29,0,.77.77,0,0,1-.26-.12l-4.87-3-.33-.19a.67.67,0,0,0-.22-.07c-.11,0-.18.07-.2.2a3,3,0,0,0,0,.59v2.09a.46.46,0,0,1-.15.36.45.45,0,0,1-.36.16.53.53,0,0,1-.51-.52V75.27a1,1,0,0,1,.3-.73,1,1,0,0,1,.72-.3,1.54,1.54,0,0,1,.3,0,2.06,2.06,0,0,1,.26.12l4.86,3,.34.19a.9.9,0,0,0,.22.07c.1,0,.17-.07.2-.21a3,3,0,0,0,0-.59V74.76a.5.5,0,0,1,.15-.37.51.51,0,0,1,.72,0A.5.5,0,0,1,69.45,74.76Z"/><path class="cls-1" d="M57,77.72a.65.65,0,0,1-.19.48.6.6,0,0,1-.46.19.63.63,0,0,1-.47-.19.65.65,0,0,1-.19-.48.58.58,0,0,1,.19-.45.63.63,0,0,1,.47-.19.6.6,0,0,1,.46.19A.58.58,0,0,1,57,77.72Z"/><path class="cls-1" d="M60.13,78.36a.53.53,0,0,1-.51.52.49.49,0,0,1-.4-.21l-2.48-3.29-.19-.2a.32.32,0,0,0-.22-.1.32.32,0,0,0-.23.1,1.46,1.46,0,0,0-.18.2l-2.5,3.3a.45.45,0,0,1-.39.2.51.51,0,0,1-.4-.83l2.58-3.47a1.35,1.35,0,0,1,.48-.4,1.4,1.4,0,0,1,.64-.15,1.54,1.54,0,0,1,.6.13,1.51,1.51,0,0,1,.47.39L60,78a.64.64,0,0,1,.11.16A.38.38,0,0,1,60.13,78.36Z"/><path class="cls-1" d="M51.49,76.55a.48.48,0,0,1-.15.37.5.5,0,0,1-.36.16H44.19v1.28a.51.51,0,0,1-1,0V76.52a.4.4,0,0,1,.16-.38,1.14,1.14,0,0,1,.52-.1H51a.46.46,0,0,1,.36.16A.45.45,0,0,1,51.49,76.55Z"/><path class="cls-1" d="M39,77.72a.65.65,0,0,1-.19.48.63.63,0,0,1-.47.19.64.64,0,0,1-.47-.19.69.69,0,0,1-.19-.48.62.62,0,0,1,.19-.45.64.64,0,0,1,.47-.19.63.63,0,0,1,.47.19A.58.58,0,0,1,39,77.72Z"/><path class="cls-1" d="M51.72,74.76a.5.5,0,0,1-.14.35.51.51,0,0,1-.37.16H43.68a.5.5,0,0,1-.36-.16.47.47,0,0,1-.15-.35.5.5,0,0,1,.15-.37.49.49,0,0,1,.36-.15h7.53a.5.5,0,0,1,.37.15A.53.53,0,0,1,51.72,74.76Z"/><path class="cls-1" d="M42.11,78.36a.53.53,0,0,1-.51.52.51.51,0,0,1-.41-.21l-2.47-3.29-.19-.2a.32.32,0,0,0-.23-.1.34.34,0,0,0-.23.1,2.3,2.3,0,0,0-.17.2l-2.5,3.3a.47.47,0,0,1-.39.2.52.52,0,0,1-.41-.83l2.59-3.47A1.39,1.39,0,0,1,38.3,74a1.55,1.55,0,0,1,.61.13,1.51,1.51,0,0,1,.47.39L42,78a.44.44,0,0,1,.1.16A.38.38,0,0,1,42.11,78.36Z"/><path class="cls-1" d="M33.35,78.1a.42.42,0,0,1,.08.26.45.45,0,0,1-.14.36.46.46,0,0,1-.36.16.53.53,0,0,1-.37-.16c-.29-.2-.58-.42-.89-.61a6.78,6.78,0,0,0-1-.53,6,6,0,0,0-1-.38,4.42,4.42,0,0,0-1.1-.12H26.47a.31.31,0,0,0-.23.12.38.38,0,0,0-.1.26v.9a.5.5,0,0,1-.87.36.45.45,0,0,1-.14-.36v-1a1.24,1.24,0,0,1,.1-.5,1.17,1.17,0,0,1,.27-.42,1,1,0,0,1,.4-.27,1.26,1.26,0,0,1,.51-.11H32a.34.34,0,0,0,.28-.11.33.33,0,0,0,.13-.28.29.29,0,0,0-.13-.26.34.34,0,0,0-.28-.12H25.63a.5.5,0,0,1-.36-.16.46.46,0,0,1-.14-.35.5.5,0,0,1,.5-.52H32a1.33,1.33,0,0,1,.56.11,1.74,1.74,0,0,1,.46.3,1.37,1.37,0,0,1,.3.45,1.42,1.42,0,0,1-.3,1.55,1.61,1.61,0,0,1-1,.43h0l.58.37c.2.14.4.29.61.46A.9.9,0,0,1,33.35,78.1Z"/><path class="cls-3" d="M99.37,44.15c0,5.57-11,10.39-27.11,12.73a154.46,154.46,0,0,1-22.21,1.53,154.7,154.7,0,0,1-22.22-1.53C11.76,54.54.73,49.71.73,44.15c0-4.63,7.64-8.76,19.5-11.35a11.58,11.58,0,0,0-.14,1.2C9.61,36.41,3,40.06,3,44.15,3,49,12.52,53.32,26.71,55.57a150,150,0,0,0,23.34,1.74,149.82,149.82,0,0,0,23.33-1.74C87.59,53.32,97.16,49,97.16,44.15,97.16,40.06,90.5,36.41,80,34c0-.39-.09-.79-.14-1.19C91.74,35.41,99.37,39.52,99.37,44.15Z"/><circle class="cls-2" cx="13.98" cy="35.14" r="3.29"/></svg>