<svg xmlns="http://www.w3.org/2000/svg" xmlns:xlink="http://www.w3.org/1999/xlink" viewBox="0 0 4440 1080"><defs><style>.cls-1{fill:url(#Dégradé_sans_nom_7);}.cls-2{fill:#fff;}.cls-3{opacity:0.46;}.cls-4{fill:#a0ff11;}.cls-5{fill:none;stroke:#fff;stroke-miterlimit:10;stroke-width:0.25px;}</style><radialGradient id="Dégradé_sans_nom_7" cx="3159.19" cy="1053.83" r="1632.79" gradientTransform="matrix(-2.12, -0.4, 0.32, -0.31, 10753.17, 2648.56)" gradientUnits="userSpaceOnUse"><stop offset="0" stop-color="ivory"/><stop offset="0" stop-color="#f6f6e8"/><stop offset="0.02" stop-color="#c8c8bf"/><stop offset="0.04" stop-color="#9d9d99"/><stop offset="0.06" stop-color="#777778"/><stop offset="0.08" stop-color="#57575b"/><stop offset="0.1" stop-color="#3b3b43"/><stop offset="0.12" stop-color="#25252f"/><stop offset="0.15" stop-color="#141420"/><stop offset="0.19" stop-color="#090916"/><stop offset="0.24" stop-color="#020210"/><stop offset="0.39" stop-color="#00000e"/><stop offset="0.96" stop-color="#000001"/><stop offset="1"/></radialGradient></defs><title>space-background</title><g id="Calque_1" data-name="Calque 1"><rect class="cls-1" width="4440" height="1080"/><path class="cls-2" d="M1523,623a1.5,1.5,0,0,0,0-3,1.5,1.5,0,0,0,0,3Z"/><path class="cls-2" d="M1751,810.5a1.5,1.5,0,0,0,0-3,1.5,1.5,0,0,0,0,3Z"/><path class="cls-2" d="M1614.5,977a1.5,1.5,0,0,0,0-3,1.5,1.5,0,0,0,0,3Z"/><path class="cls-2" d="M1424,141.5a1.5,1.5,0,0,0,0-3,1.5,1.5,0,0,0,0,3Z"/><path class="cls-2" d="M1410.5,338a1.5,1.5,0,0,0,0-3,1.5,1.5,0,0,0,0,3Z"/></g><g id="ETOILE"><path class="cls-2" d="M2042.92,172.08a1.5,1.5,0,0,0,0-3,1.5,1.5,0,0,0,0,3Z"/><path class="cls-2" d="M1849.17,513.75a1.5,1.5,0,0,0,0-3,1.5,1.5,0,0,0,0,3Z"/><g class="cls-3"><path class="cls-4" d="M1665.5,272.5a1.25,1.25,0,0,0,0-2.5,1.25,1.25,0,0,0,0,2.5Z"/></g><g class="cls-3"><path class="cls-4" d="M1892.75,396.25a1.25,1.25,0,0,0,0-2.5,1.25,1.25,0,0,0,0,2.5Z"/></g><g class="cls-3"><path class="cls-4" d="M1496.75,502a1.25,1.25,0,0,0,0-2.5,1.25,1.25,0,0,0,0,2.5Z"/></g><g class="cls-3"><path class="cls-2" d="M2129,751.75a1.25,1.25,0,0,0,0-2.5,1.25,1.25,0,0,0,0,2.5Z"/></g><g class="cls-3"><path class="cls-2" d="M2243.75,943a1.25,1.25,0,0,0,0-2.5,1.25,1.25,0,0,0,0,2.5Z"/></g><g class="cls-3"><path class="cls-2" d="M2003,934a1.25,1.25,0,0,0,0-2.5,1.25,1.25,0,0,0,0,2.5Z"/></g><g class="cls-3"><path class="cls-2" d="M2129,859.75a1.25,1.25,0,0,0,0-2.5,1.25,1.25,0,0,0,0,2.5Z"/></g><g class="cls-3"><path class="cls-2" d="M1883.75,850.75a1.25,1.25,0,0,0,0-2.5,1.25,1.25,0,0,0,0,2.5Z"/></g><g class="cls-3"><path class="cls-2" d="M1535,781a1.25,1.25,0,0,0,0-2.5,1.25,1.25,0,0,0,0,2.5Z"/></g><g class="cls-3"><path class="cls-2" d="M1571,758.5a1.25,1.25,0,0,0,0-2.5,1.25,1.25,0,0,0,0,2.5Z"/></g><g class="cls-3"><path class="cls-2" d="M1694.75,920.5a1.25,1.25,0,0,0,0-2.5,1.25,1.25,0,0,0,0,2.5Z"/></g><g class="cls-3"><path class="cls-2" d="M1384.25,817a1.25,1.25,0,0,0,0-2.5,1.25,1.25,0,0,0,0,2.5Z"/></g><g class="cls-3"><path class="cls-2" d="M1400,612.25a1.25,1.25,0,0,0,0-2.5,1.25,1.25,0,0,0,0,2.5Z"/></g><g class="cls-3"><path class="cls-2" d="M1487.75,688.75a1.25,1.25,0,0,0,0-2.5,1.25,1.25,0,0,0,0,2.5Z"/></g><g class="cls-3"><path class="cls-2" d="M1334.75,713.5a1.25,1.25,0,0,0,0-2.5,1.25,1.25,0,0,0,0,2.5Z"/></g><g class="cls-3"><path class="cls-2" d="M1339.25,490.75a1.25,1.25,0,0,0,0-2.5,1.25,1.25,0,0,0,0,2.5Z"/></g><g class="cls-3"><path class="cls-2" d="M1573.25,394a1.25,1.25,0,0,0,0-2.5,1.25,1.25,0,0,0,0,2.5Z"/></g><g class="cls-3"><path class="cls-2" d="M1438.25,477.25a1.25,1.25,0,0,0,0-2.5,1.25,1.25,0,0,0,0,2.5Z"/></g><g class="cls-3"><path class="cls-2" d="M1440.5,259a1.25,1.25,0,0,0,0-2.5,1.25,1.25,0,0,0,0,2.5Z"/></g><g class="cls-3"><path class="cls-2" d="M1319,229.75a1.25,1.25,0,0,0,0-2.5,1.25,1.25,0,0,0,0,2.5Z"/></g><g class="cls-3"><path class="cls-2" d="M1528.25,144.25a1.25,1.25,0,0,0,0-2.5,1.25,1.25,0,0,0,0,2.5Z"/></g><g class="cls-3"><path class="cls-2" d="M1476.5,49.75a1.25,1.25,0,0,0,0-2.5,1.25,1.25,0,0,0,0,2.5Z"/></g><g class="cls-3"><path class="cls-2" d="M1591.25,272.5a1.25,1.25,0,0,0,0-2.5,1.25,1.25,0,0,0,0,2.5Z"/></g><g class="cls-3"><path class="cls-2" d="M1694.75,70a1.25,1.25,0,0,0,0-2.5,1.25,1.25,0,0,0,0,2.5Z"/></g><g class="cls-3"><path class="cls-2" d="M1584.5,106a1.25,1.25,0,0,0,0-2.5,1.25,1.25,0,0,0,0,2.5Z"/></g><g class="cls-3"><path class="cls-2" d="M1683.5,202.75a1.25,1.25,0,0,0,0-2.5,1.25,1.25,0,0,0,0,2.5Z"/></g><g class="cls-3"><path class="cls-2" d="M1910.75,369.25a1.25,1.25,0,0,0,0-2.5,1.25,1.25,0,0,0,0,2.5Z"/></g><g class="cls-3"><path class="cls-2" d="M1710.5,353.5a1.25,1.25,0,0,0,0-2.5,1.25,1.25,0,0,0,0,2.5Z"/></g><g class="cls-3"><path class="cls-2" d="M1874.75,749.5a1.25,1.25,0,0,0,0-2.5,1.25,1.25,0,0,0,0,2.5Z"/></g><g class="cls-3"><path class="cls-2" d="M1775.75,682a1.25,1.25,0,0,0,0-2.5,1.25,1.25,0,0,0,0,2.5Z"/></g><g class="cls-3"><path class="cls-2" d="M1679,767.5a1.25,1.25,0,0,0,0-2.5,1.25,1.25,0,0,0,0,2.5Z"/></g><g class="cls-3"><path class="cls-2" d="M1829.75,603.25a1.25,1.25,0,0,0,0-2.5,1.25,1.25,0,0,0,0,2.5Z"/></g><g class="cls-3"><path class="cls-2" d="M2372,823.75a1.25,1.25,0,0,0,0-2.5,1.25,1.25,0,0,0,0,2.5Z"/></g><g class="cls-3"><path class="cls-2" d="M1897.25,43a1.25,1.25,0,0,0,0-2.5,1.25,1.25,0,0,0,0,2.5Z"/></g><g class="cls-3"><path class="cls-2" d="M1562,578.5a1.25,1.25,0,0,0,0-2.5,1.25,1.25,0,0,0,0,2.5Z"/></g><g class="cls-3"><path class="cls-2" d="M1427,556a1.25,1.25,0,0,0,0-2.5,1.25,1.25,0,0,0,0,2.5Z"/></g><g class="cls-3"><path class="cls-2" d="M1454,549.25a1.25,1.25,0,0,0,0-2.5,1.25,1.25,0,0,0,0,2.5Z"/></g><g class="cls-3"><path class="cls-2" d="M1310,1001.5a1.25,1.25,0,0,0,0-2.5,1.25,1.25,0,0,0,0,2.5Z"/></g><g class="cls-3"><path class="cls-2" d="M1487.75,1039.75a1.25,1.25,0,0,0,0-2.5,1.25,1.25,0,0,0,0,2.5Z"/></g><g class="cls-3"><path class="cls-2" d="M2243.75,313a1.25,1.25,0,0,0,0-2.5,1.25,1.25,0,0,0,0,2.5Z"/></g><g class="cls-3"><path class="cls-2" d="M2207.75,229.75a1.25,1.25,0,0,0,0-2.5,1.25,1.25,0,0,0,0,2.5Z"/></g><g class="cls-3"><path class="cls-2" d="M1856.75,135.25a1.25,1.25,0,0,0,0-2.5,1.25,1.25,0,0,0,0,2.5Z"/></g><path class="cls-2" d="M2124.5,637a1.25,1.25,0,0,0,0-2.5,1.25,1.25,0,0,0,0,2.5Z"/><path class="cls-2" d="M1899.5,315.25a1.25,1.25,0,0,0,0-2.5,1.25,1.25,0,0,0,0,2.5Z"/><path class="cls-2" d="M1969.25,112.75a1.25,1.25,0,0,0,0-2.5,1.25,1.25,0,0,0,0,2.5Z"/><path class="cls-2" d="M1584.5,65.5a1.25,1.25,0,0,0,0-2.5,1.25,1.25,0,0,0,0,2.5Z"/><path class="cls-2" d="M1796,153.25a1.25,1.25,0,0,0,0-2.5,1.25,1.25,0,0,0,0,2.5Z"/><path class="cls-2" d="M1586.75,193.75a1.25,1.25,0,0,0,0-2.5,1.25,1.25,0,0,0,0,2.5Z"/><path class="cls-2" d="M1683.5,135.25a1.25,1.25,0,0,0,0-2.5,1.25,1.25,0,0,0,0,2.5Z"/><path class="cls-2" d="M1526,72.25a1.25,1.25,0,0,0,0-2.5,1.25,1.25,0,0,0,0,2.5Z"/><path class="cls-2" d="M1555.25,416.5a1.25,1.25,0,0,0,0-2.5,1.25,1.25,0,0,0,0,2.5Z"/><path class="cls-2" d="M1829.75,341.38a.38.38,0,0,0,0-.75.38.38,0,0,0,0,.75Z"/><path class="cls-2" d="M2126.75,467.38a.38.38,0,0,0,0-.75.38.38,0,0,0,0,.75Z"/><path class="cls-2" d="M1834.25,1002.88a.38.38,0,0,0,0-.75.38.38,0,0,0,0,.75Z"/><path class="cls-2" d="M2277.5,1052.38a.38.38,0,0,0,0-.75.38.38,0,0,0,0,.75Z"/><path class="cls-4" d="M1933.25,816.13a.38.38,0,0,0,0-.75.38.38,0,0,0,0,.75Z"/><path class="cls-4" d="M2194.25,532.63a.38.38,0,0,0,0-.75.38.38,0,0,0,0,.75Z"/><path class="cls-4" d="M1712.75,489.88a.38.38,0,0,0,0-.75.38.38,0,0,0,0,.75Z"/><path class="cls-4" d="M1739.75,478.63a.38.38,0,0,0,0-.75.38.38,0,0,0,0,.75Z"/><path class="cls-4" d="M1762.25,541.63a.38.38,0,0,0,0-.75.38.38,0,0,0,0,.75Z"/><path class="cls-4" d="M1492.25,757.63a.38.38,0,0,0,0-.75.38.38,0,0,0,0,.75Z"/><path class="cls-4" d="M1706,852.13a.38.38,0,0,0,0-.75.38.38,0,0,0,0,.75Z"/><path class="cls-4" d="M1841,71.38a.38.38,0,0,0,0-.75.38.38,0,0,0,0,.75Z"/><path class="cls-4" d="M2068.25,44.38a.38.38,0,0,0,0-.75.38.38,0,0,0,0,.75Z"/><path class="cls-4" d="M1348.25,390.88a.38.38,0,0,0,0-.75.38.38,0,0,0,0,.75Z"/><path class="cls-4" d="M1733,629.38a.38.38,0,0,0,0-.75.38.38,0,0,0,0,.75Z"/><path class="cls-4" d="M2261.75,476.38a.38.38,0,0,0,0-.75.38.38,0,0,0,0,.75Z"/><path class="cls-4" d="M2063.75,566.38a.38.38,0,0,0,0-.75.38.38,0,0,0,0,.75Z"/><path class="cls-4" d="M2165,559.63a.38.38,0,0,0,0-.75.38.38,0,0,0,0,.75Z"/><path class="cls-4" d="M2342.75,73.63a.38.38,0,0,0,0-.75.38.38,0,0,0,0,.75Z"/><path class="cls-4" d="M2174,1045.63a.38.38,0,0,0,0-.75.38.38,0,0,0,0,.75Z"/><path class="cls-4" d="M2466.5,1054.63a.38.38,0,0,0,0-.75.38.38,0,0,0,0,.75Z"/><path class="cls-4" d="M1404.5,1029.88a.38.38,0,0,0,0-.75.38.38,0,0,0,0,.75Z"/><path class="cls-4" d="M1316.75,935.38a.38.38,0,0,0,0-.75.38.38,0,0,0,0,.75Z"/><path class="cls-4" d="M1325.75,1047.88a.38.38,0,0,0,0-.75.38.38,0,0,0,0,.75Z"/><path class="cls-4" d="M1294.25,1047.88a.38.38,0,0,0,0-.75.38.38,0,0,0,0,.75Z"/><path class="cls-4" d="M1382,1030.25a.75.75,0,0,0,0-1.5.75.75,0,0,0,0,1.5Z"/><path class="cls-4" d="M1379.75,967.25a.75.75,0,0,0,0-1.5.75.75,0,0,0,0,1.5Z"/><path class="cls-4" d="M1508,1005.5a.75.75,0,0,0,0-1.5.75.75,0,0,0,0,1.5Z"/><path class="cls-4" d="M1456.25,852.5a.75.75,0,0,0,0-1.5.75.75,0,0,0,0,1.5Z"/><path class="cls-4" d="M1521.5,783.13a1.13,1.13,0,0,0,0-2.25,1.13,1.13,0,0,0,0,2.25Z"/><path class="cls-4" d="M1546.25,922.63a1.13,1.13,0,0,0,0-2.25,1.13,1.13,0,0,0,0,2.25Z"/><path class="cls-4" d="M1775.75,1044.13a1.13,1.13,0,0,0,0-2.25,1.13,1.13,0,0,0,0,2.25Z"/><path class="cls-4" d="M1683.5,1032.88a1.13,1.13,0,0,0,0-2.25,1.13,1.13,0,0,0,0,2.25Z"/><path class="cls-4" d="M1649.75,414.13a1.13,1.13,0,0,0,0-2.25,1.13,1.13,0,0,0,0,2.25Z"/><path class="cls-4" d="M2057,319.63a1.13,1.13,0,0,0,0-2.25,1.13,1.13,0,0,0,0,2.25Z"/><path class="cls-4" d="M1773.5,54.13a1.13,1.13,0,0,0,0-2.25,1.13,1.13,0,0,0,0,2.25Z"/><path class="cls-4" d="M1712.75,360.13a1.13,1.13,0,0,0,0-2.25,1.13,1.13,0,0,0,0,2.25Z"/><path class="cls-4" d="M1638.75,345a1.5,1.5,0,0,0,0-3,1.5,1.5,0,0,0,0,3Z"/><path class="cls-4" d="M1965.83,642.92a1.5,1.5,0,0,0,0-3,1.5,1.5,0,0,0,0,3Z"/><path class="cls-4" d="M1453.33,890.83a1.5,1.5,0,0,0,0-3,1.5,1.5,0,0,0,0,3Z"/><path class="cls-4" d="M1545,959.58a1.5,1.5,0,0,0,0-3,1.5,1.5,0,0,0,0,3Z"/><path class="cls-4" d="M1611.67,1028.33a1.5,1.5,0,0,0,0-3,1.5,1.5,0,0,0,0,3Z"/><path class="cls-4" d="M1863.75,978.33a1.5,1.5,0,0,0,0-3,1.5,1.5,0,0,0,0,3Z"/><path class="cls-4" d="M2274.17,195a1.5,1.5,0,0,0,0-3,1.5,1.5,0,0,0,0,3Z"/><line class="cls-5" x1="1796.45" y1="151.99" x2="1820.55" y2="223.01"/><line class="cls-5" x1="2003" y1="933" x2="1969" y2="956"/><path class="cls-2" d="M2436.67,407.5a1.5,1.5,0,0,0,0-3,1.5,1.5,0,0,0,0,3Z"/><path class="cls-2" d="M2407.5,774.17a1.5,1.5,0,0,0,0-3,1.5,1.5,0,0,0,0,3Z"/><path class="cls-2" d="M2567.92,726.25a1.5,1.5,0,0,0,0-3,1.5,1.5,0,0,0,0,3Z"/><path class="cls-2" d="M2390.83,607.5a1.5,1.5,0,0,0,0-3,1.5,1.5,0,0,0,0,3Z"/><path class="cls-2" d="M2311.67,678.33a1.5,1.5,0,0,0,0-3,1.5,1.5,0,0,0,0,3Z"/><path class="cls-2" d="M2563.75,82.13a1.13,1.13,0,0,0,0-2.25,1.13,1.13,0,0,0,0,2.25Z"/><path class="cls-2" d="M2578.33,203a1.13,1.13,0,0,0,0-2.25,1.13,1.13,0,0,0,0,2.25Z"/><path class="cls-2" d="M2190.83,57.13a1.13,1.13,0,0,0,0-2.25,1.13,1.13,0,0,0,0,2.25Z"/><path class="cls-2" d="M2432.5,54.67a.75.75,0,0,0,0-1.5.75.75,0,0,0,0,1.5Z"/><path class="cls-2" d="M2424.17,173.42a.75.75,0,0,0,0-1.5.75.75,0,0,0,0,1.5Z"/><path class="cls-2" d="M1415.83,752.58a.75.75,0,0,0,0-1.5.75.75,0,0,0,0,1.5Z"/><path class="cls-2" d="M1676.25,650.5a.75.75,0,0,0,0-1.5.75.75,0,0,0,0,1.5Z"/><path class="cls-2" d="M2122.08,979.67a.75.75,0,0,0,0-1.5.75.75,0,0,0,0,1.5Z"/><path class="cls-2" d="M2151.25,967.17a.75.75,0,0,0,0-1.5.75.75,0,0,0,0,1.5Z"/><path class="cls-2" d="M2553.33,1008.83a.75.75,0,0,0,0-1.5.75.75,0,0,0,0,1.5Z"/><path class="cls-2" d="M2176.25,154.67a.75.75,0,0,0,0-1.5.75.75,0,0,0,0,1.5Z"/><path class="cls-2" d="M2295,160.92a.75.75,0,0,0,0-1.5.75.75,0,0,0,0,1.5Z"/><path class="cls-2" d="M2582.5,527.58a.75.75,0,0,0,0-1.5.75.75,0,0,0,0,1.5Z"/><path class="cls-2" d="M1636.67,869.25a.75.75,0,0,0,0-1.5.75.75,0,0,0,0,1.5Z"/><path class="cls-2" d="M2732.5,73.42a.75.75,0,0,0,0-1.5.75.75,0,0,0,0,1.5Z"/><path class="cls-2" d="M1999.17,633.83a.75.75,0,0,0,0-1.5.75.75,0,0,0,0,1.5Z"/><path class="cls-2" d="M2399.17,977.58a.75.75,0,0,0,0-1.5.75.75,0,0,0,0,1.5Z"/><path class="cls-2" d="M1961.67,527.58a.75.75,0,0,0,0-1.5.75.75,0,0,0,0,1.5Z"/><path class="cls-2" d="M2201.25,404.67a.75.75,0,0,0,0-1.5.75.75,0,0,0,0,1.5Z"/><path class="cls-2" d="M2542.92,618.88a.38.38,0,0,0,0-.75.38.38,0,0,0,0,.75Z"/><path class="cls-2" d="M2372.08,66.79a.38.38,0,0,0,0-.75.38.38,0,0,0,0,.75Z"/><path class="cls-2" d="M1678.33,829.29a.38.38,0,0,0,0-.75.38.38,0,0,0,0,.75Z"/><path class="cls-2" d="M1951.25,875.13a.38.38,0,0,0,0-.75.38.38,0,0,0,0,.75Z"/><path class="cls-2" d="M2295,989.71a.38.38,0,0,0,0-.75.38.38,0,0,0,0,.75Z"/><path class="cls-2" d="M1455.42,439.71a.38.38,0,0,0,0-.75.38.38,0,0,0,0,.75Z"/><line class="cls-5" x1="1523" y1="621" x2="1411" y2="677"/><path class="cls-2" d="M1055,372.5a1.5,1.5,0,0,0,0-3,1.5,1.5,0,0,0,0,3Z"/><path class="cls-2" d="M1181,204.5a1.5,1.5,0,0,0,0-3,1.5,1.5,0,0,0,0,3Z"/><path class="cls-2" d="M851,288.5a1.5,1.5,0,0,0,0-3,1.5,1.5,0,0,0,0,3Z"/><path class="cls-2" d="M695,468.5a1.5,1.5,0,0,0,0-3,1.5,1.5,0,0,0,0,3Z"/><path class="cls-2" d="M935,756.5a1.5,1.5,0,0,0,0-3,1.5,1.5,0,0,0,0,3Z"/><path class="cls-2" d="M1325,858.5a1.5,1.5,0,0,0,0-3,1.5,1.5,0,0,0,0,3Z"/><path class="cls-2" d="M365,882.5a1.5,1.5,0,0,0,0-3,1.5,1.5,0,0,0,0,3Z"/><path class="cls-2" d="M648.5,562.25a.75.75,0,0,0,0-1.5.75.75,0,0,0,0,1.5Z"/><path class="cls-2" d="M626,850.25a.75.75,0,0,0,0-1.5.75.75,0,0,0,0,1.5Z"/><path class="cls-2" d="M338,602.75a.75.75,0,0,0,0-1.5.75.75,0,0,0,0,1.5Z"/><path class="cls-2" d="M522.5,274.25a.75.75,0,0,0,0-1.5.75.75,0,0,0,0,1.5Z"/><path class="cls-2" d="M185,233.75a.75.75,0,0,0,0-1.5.75.75,0,0,0,0,1.5Z"/><path class="cls-2" d="M315.5,359.75a.75.75,0,0,0,0-1.5.75.75,0,0,0,0,1.5Z"/><path class="cls-2" d="M450.5,427.25a.75.75,0,0,0,0-1.5.75.75,0,0,0,0,1.5Z"/><path class="cls-2" d="M1035.5,413.75a.75.75,0,0,0,0-1.5.75.75,0,0,0,0,1.5Z"/><path class="cls-2" d="M945.5,116.75a.75.75,0,0,0,0-1.5.75.75,0,0,0,0,1.5Z"/><path class="cls-2" d="M558.5,715.25a.75.75,0,0,0,0-1.5.75.75,0,0,0,0,1.5Z"/><path class="cls-2" d="M734,769.25a.75.75,0,0,0,0-1.5.75.75,0,0,0,0,1.5Z"/><path class="cls-2" d="M1157,854.75a.75.75,0,0,0,0-1.5.75.75,0,0,0,0,1.5Z"/><path class="cls-2" d="M1242.5,715.25a.75.75,0,0,0,0-1.5.75.75,0,0,0,0,1.5Z"/><path class="cls-2" d="M1017.5,908.75a.75.75,0,0,0,0-1.5.75.75,0,0,0,0,1.5Z"/><path class="cls-2" d="M1247,949.25a.75.75,0,0,0,0-1.5.75.75,0,0,0,0,1.5Z"/><path class="cls-2" d="M1823,742.25a.75.75,0,0,0,0-1.5.75.75,0,0,0,0,1.5Z"/><path class="cls-2" d="M2133.5,886.25a.75.75,0,0,0,0-1.5.75.75,0,0,0,0,1.5Z"/><path class="cls-2" d="M113,1030.25a.75.75,0,0,0,0-1.5.75.75,0,0,0,0,1.5Z"/><path class="cls-2" d="M185,665.75a.75.75,0,0,0,0-1.5.75.75,0,0,0,0,1.5Z"/><path class="cls-2" d="M365,431.38a.38.38,0,0,0,0-.75.38.38,0,0,0,0,.75Z"/><path class="cls-2" d="M653,449.38a.38.38,0,0,0,0-.75.38.38,0,0,0,0,.75Z"/><path class="cls-2" d="M716,192.88a.38.38,0,0,0,0-.75.38.38,0,0,0,0,.75Z"/><path class="cls-2" d="M378.5,143.38a.38.38,0,0,0,0-.75.38.38,0,0,0,0,.75Z"/><path class="cls-2" d="M140,30.88a.38.38,0,0,0,0-.75.38.38,0,0,0,0,.75Z"/><path class="cls-2" d="M113,381.88a.38.38,0,0,0,0-.75.38.38,0,0,0,0,.75Z"/><path class="cls-2" d="M216.5,449.38a.38.38,0,0,0,0-.75.38.38,0,0,0,0,.75Z"/><path class="cls-2" d="M284,764.38a.38.38,0,0,0,0-.75.38.38,0,0,0,0,.75Z"/><path class="cls-2" d="M554,980.38a.38.38,0,0,0,0-.75.38.38,0,0,0,0,.75Z"/><path class="cls-2" d="M860,980.38a.38.38,0,0,0,0-.75.38.38,0,0,0,0,.75Z"/><path class="cls-2" d="M1040,1011.88a.38.38,0,0,0,0-.75.38.38,0,0,0,0,.75Z"/><path class="cls-2" d="M860,876.88a.38.38,0,0,0,0-.75.38.38,0,0,0,0,.75Z"/><path class="cls-2" d="M855.5,647.38a.38.38,0,0,0,0-.75.38.38,0,0,0,0,.75Z"/><path class="cls-2" d="M1098.5,584.38a.38.38,0,0,0,0-.75.38.38,0,0,0,0,.75Z"/><path class="cls-2" d="M792.5,377.38a.38.38,0,0,0,0-.75.38.38,0,0,0,0,.75Z"/><path class="cls-2" d="M1256,458.38a.38.38,0,0,0,0-.75.38.38,0,0,0,0,.75Z"/><path class="cls-2" d="M1080.5,732.88a.38.38,0,0,0,0-.75.38.38,0,0,0,0,.75Z"/><path class="cls-2" d="M1278.5,840.88a.38.38,0,0,0,0-.75.38.38,0,0,0,0,.75Z"/><path class="cls-2" d="M1112,827.38a.38.38,0,0,0,0-.75.38.38,0,0,0,0,.75Z"/><path class="cls-2" d="M954.5,719.38a.38.38,0,0,0,0-.75.38.38,0,0,0,0,.75Z"/><path class="cls-2" d="M986,791.38a.38.38,0,0,0,0-.75.38.38,0,0,0,0,.75Z"/><path class="cls-2" d="M851,800.38a.38.38,0,0,0,0-.75.38.38,0,0,0,0,.75Z"/><path class="cls-2" d="M1053.5,867.88a.38.38,0,0,0,0-.75.38.38,0,0,0,0,.75Z"/><path class="cls-2" d="M711.5,890.38a.38.38,0,0,0,0-.75.38.38,0,0,0,0,.75Z"/><path class="cls-2" d="M644,998.38a.38.38,0,0,0,0-.75.38.38,0,0,0,0,.75Z"/><path class="cls-2" d="M545,588.88a.38.38,0,0,0,0-.75.38.38,0,0,0,0,.75Z"/><path class="cls-2" d="M1112,408.88a.38.38,0,0,0,0-.75.38.38,0,0,0,0,.75Z"/><path class="cls-2" d="M1067,219.88a.38.38,0,0,0,0-.75.38.38,0,0,0,0,.75Z"/><path class="cls-2" d="M1409,152.38a.38.38,0,0,0,0-.75.38.38,0,0,0,0,.75Z"/><path class="cls-2" d="M1269.5,75.88a.38.38,0,0,0,0-.75.38.38,0,0,0,0,.75Z"/><path class="cls-2" d="M504.5,75.88a.38.38,0,0,0,0-.75.38.38,0,0,0,0,.75Z"/><path class="cls-2" d="M104,125.38a.38.38,0,0,0,0-.75.38.38,0,0,0,0,.75Z"/><path class="cls-2" d="M257,156.88a.38.38,0,0,0,0-.75.38.38,0,0,0,0,.75Z"/><path class="cls-2" d="M113,156.88a.38.38,0,0,0,0-.75.38.38,0,0,0,0,.75Z"/><path class="cls-2" d="M162.5,111.88a.38.38,0,0,0,0-.75.38.38,0,0,0,0,.75Z"/><path class="cls-2" d="M153.5,219.88a.38.38,0,0,0,0-.75.38.38,0,0,0,0,.75Z"/><path class="cls-2" d="M135.5,273.88a.38.38,0,0,0,0-.75.38.38,0,0,0,0,.75Z"/><path class="cls-2" d="M189.5,881.38a.38.38,0,0,0,0-.75.38.38,0,0,0,0,.75Z"/><path class="cls-2" d="M365,944.38a.38.38,0,0,0,0-.75.38.38,0,0,0,0,.75Z"/><path class="cls-2" d="M3123.5,575.38a.38.38,0,0,0,0-.75.38.38,0,0,0,0,.75Z"/><path class="cls-2" d="M3269.75,588.88a.38.38,0,0,0,0-.75.38.38,0,0,0,0,.75Z"/><path class="cls-2" d="M3182,685.63a.38.38,0,0,0,0-.75.38.38,0,0,0,0,.75Z"/><path class="cls-2" d="M3096.5,352.63a.38.38,0,0,0,0-.75.38.38,0,0,0,0,.75Z"/><path class="cls-2" d="M3139.25,300.88a.38.38,0,0,0,0-.75.38.38,0,0,0,0,.75Z"/><path class="cls-2" d="M3004.25,366.13a.38.38,0,0,0,0-.75.38.38,0,0,0,0,.75Z"/><path class="cls-2" d="M3029,366.13a.38.38,0,0,0,0-.75.38.38,0,0,0,0,.75Z"/><path class="cls-2" d="M3137,399.88a.38.38,0,0,0,0-.75.38.38,0,0,0,0,.75Z"/><path class="cls-2" d="M2948,501.13a.38.38,0,0,0,0-.75.38.38,0,0,0,0,.75Z"/><path class="cls-2" d="M2831,555.13a.38.38,0,0,0,0-.75.38.38,0,0,0,0,.75Z"/><path class="cls-2" d="M2975,694.63a.38.38,0,0,0,0-.75.38.38,0,0,0,0,.75Z"/><path class="cls-2" d="M2801.75,741.88a.38.38,0,0,0,0-.75.38.38,0,0,0,0,.75Z"/><path class="cls-2" d="M2801.75,813.88a.38.38,0,0,0,0-.75.38.38,0,0,0,0,.75Z"/><path class="cls-2" d="M2945.75,834.13a.38.38,0,0,0,0-.75.38.38,0,0,0,0,.75Z"/><path class="cls-2" d="M2907.5,701.38a.38.38,0,0,0,0-.75.38.38,0,0,0,0,.75Z"/><path class="cls-2" d="M3150.5,714.88a.38.38,0,0,0,0-.75.38.38,0,0,0,0,.75Z"/><path class="cls-2" d="M3101,816.13a.38.38,0,0,0,0-.75.38.38,0,0,0,0,.75Z"/><path class="cls-2" d="M2993,593.38a.38.38,0,0,0,0-.75.38.38,0,0,0,0,.75Z"/><path class="cls-2" d="M3233.75,501.13a.38.38,0,0,0,0-.75.38.38,0,0,0,0,.75Z"/><path class="cls-2" d="M2581.25,867.88a.38.38,0,0,0,0-.75.38.38,0,0,0,0,.75Z"/><path class="cls-2" d="M2693.75,917.38a.38.38,0,0,0,0-.75.38.38,0,0,0,0,.75Z"/><path class="cls-2" d="M2831,978.13a.38.38,0,0,0,0-.75.38.38,0,0,0,0,.75Z"/><path class="cls-2" d="M2707.25,649.63a.38.38,0,0,0,0-.75.38.38,0,0,0,0,.75Z"/><path class="cls-2" d="M2691.5,577.63a.38.38,0,0,0,0-.75.38.38,0,0,0,0,.75Z"/><path class="cls-2" d="M2624,602.38a.38.38,0,0,0,0-.75.38.38,0,0,0,0,.75Z"/><path class="cls-2" d="M2770.25,181.63a.38.38,0,0,0,0-.75.38.38,0,0,0,0,.75Z"/><path class="cls-2" d="M2750,183.88a.38.38,0,0,0,0-.75.38.38,0,0,0,0,.75Z"/><path class="cls-2" d="M2761.25,271.63a.38.38,0,0,0,0-.75.38.38,0,0,0,0,.75Z"/><path class="cls-2" d="M2894,359.38a.38.38,0,0,0,0-.75.38.38,0,0,0,0,.75Z"/><path class="cls-2" d="M2912,345.88a.38.38,0,0,0,0-.75.38.38,0,0,0,0,.75Z"/><path class="cls-2" d="M3051.5,492.13a.38.38,0,0,0,0-.75.38.38,0,0,0,0,.75Z"/><path class="cls-2" d="M3465.5,530.38a.38.38,0,0,0,0-.75.38.38,0,0,0,0,.75Z"/><path class="cls-2" d="M3641,521.38a.38.38,0,0,0,0-.75.38.38,0,0,0,0,.75Z"/><path class="cls-2" d="M3555.5,469.63a.38.38,0,0,0,0-.75.38.38,0,0,0,0,.75Z"/><path class="cls-2" d="M3557.75,582.13a.38.38,0,0,0,0-.75.38.38,0,0,0,0,.75Z"/><path class="cls-2" d="M3384.5,564.13a.38.38,0,0,0,0-.75.38.38,0,0,0,0,.75Z"/><path class="cls-2" d="M3213.5,777.88a.38.38,0,0,0,0-.75.38.38,0,0,0,0,.75Z"/><path class="cls-2" d="M3067.25,748.63a.38.38,0,0,0,0-.75.38.38,0,0,0,0,.75Z"/><path class="cls-2" d="M3067.25,705.88a.38.38,0,0,0,0-.75.38.38,0,0,0,0,.75Z"/><path class="cls-2" d="M2997.5,786.88a.38.38,0,0,0,0-.75.38.38,0,0,0,0,.75Z"/><path class="cls-2" d="M3069.5,1005.13a.38.38,0,0,0,0-.75.38.38,0,0,0,0,.75Z"/><path class="cls-2" d="M2909.75,948.88a.38.38,0,0,0,0-.75.38.38,0,0,0,0,.75Z"/><path class="cls-2" d="M2880.5,910.63a.38.38,0,0,0,0-.75.38.38,0,0,0,0,.75Z"/><path class="cls-2" d="M2997.5,971.38a.38.38,0,0,0,0-.75.38.38,0,0,0,0,.75Z"/><path class="cls-2" d="M3454.25,1032.13a.38.38,0,0,0,0-.75.38.38,0,0,0,0,.75Z"/><path class="cls-2" d="M3184.25,973.63a.38.38,0,0,0,0-.75.38.38,0,0,0,0,.75Z"/><path class="cls-2" d="M3274.25,1032.13a.38.38,0,0,0,0-.75.38.38,0,0,0,0,.75Z"/><path class="cls-2" d="M3186.5,1032.13a.38.38,0,0,0,0-.75.38.38,0,0,0,0,.75Z"/><path class="cls-2" d="M2900.75,132.13a.38.38,0,0,0,0-.75.38.38,0,0,0,0,.75Z"/><path class="cls-2" d="M3002,80.38a.38.38,0,0,0,0-.75.38.38,0,0,0,0,.75Z"/><path class="cls-2" d="M3366.5,82.63a.38.38,0,0,0,0-.75.38.38,0,0,0,0,.75Z"/><path class="cls-2" d="M3152.75,129.88a.38.38,0,0,0,0-.75.38.38,0,0,0,0,.75Z"/><path class="cls-2" d="M3326,219.88a.38.38,0,0,0,0-.75.38.38,0,0,0,0,.75Z"/><path class="cls-2" d="M3503.75,343.63a.38.38,0,0,0,0-.75.38.38,0,0,0,0,.75Z"/><path class="cls-2" d="M3391.25,417.88a.38.38,0,0,0,0-.75.38.38,0,0,0,0,.75Z"/><path class="cls-2" d="M3391.25,417.88a.38.38,0,0,0,0-.75.38.38,0,0,0,0,.75Z"/><path class="cls-2" d="M3382.25,361.63a.38.38,0,0,0,0-.75.38.38,0,0,0,0,.75Z"/><path class="cls-2" d="M3456.5,397.63a.38.38,0,0,0,0-.75.38.38,0,0,0,0,.75Z"/><path class="cls-2" d="M3251.75,408.88a.38.38,0,0,0,0-.75.38.38,0,0,0,0,.75Z"/><path class="cls-2" d="M3312.5,339.13a.38.38,0,0,0,0-.75.38.38,0,0,0,0,.75Z"/><path class="cls-2" d="M3143.75,264.88a.38.38,0,0,0,0-.75.38.38,0,0,0,0,.75Z"/><path class="cls-2" d="M3236,260.38a.38.38,0,0,0,0-.75.38.38,0,0,0,0,.75Z"/><path class="cls-2" d="M3310.25,174.88a.38.38,0,0,0,0-.75.38.38,0,0,0,0,.75Z"/><path class="cls-2" d="M3560,219.88a.38.38,0,0,0,0-.75.38.38,0,0,0,0,.75Z"/><path class="cls-2" d="M3854.75,354.88a.38.38,0,0,0,0-.75.38.38,0,0,0,0,.75Z"/><path class="cls-2" d="M3884,300.88a.38.38,0,0,0,0-.75.38.38,0,0,0,0,.75Z"/><path class="cls-2" d="M3818.75,442.63a.38.38,0,0,0,0-.75.38.38,0,0,0,0,.75Z"/><path class="cls-2" d="M3800.75,656.38a.38.38,0,0,0,0-.75.38.38,0,0,0,0,.75Z"/><path class="cls-2" d="M3569,676.63a.38.38,0,0,0,0-.75.38.38,0,0,0,0,.75Z"/><path class="cls-2" d="M3600.5,645.13a.38.38,0,0,0,0-.75.38.38,0,0,0,0,.75Z"/><path class="cls-2" d="M3535.25,654.13a.38.38,0,0,0,0-.75.38.38,0,0,0,0,.75Z"/><path class="cls-2" d="M3467.75,735.13a.38.38,0,0,0,0-.75.38.38,0,0,0,0,.75Z"/><path class="cls-2" d="M3335,692.38a.38.38,0,0,0,0-.75.38.38,0,0,0,0,.75Z"/><path class="cls-2" d="M3359.75,584.38a.38.38,0,0,0,0-.75.38.38,0,0,0,0,.75Z"/><path class="cls-2" d="M3314.75,483.13a.38.38,0,0,0,0-.75.38.38,0,0,0,0,.75Z"/><path class="cls-2" d="M3458.75,487.63a.38.38,0,0,0,0-.75.38.38,0,0,0,0,.75Z"/><path class="cls-2" d="M3717.5,582.13a.38.38,0,0,0,0-.75.38.38,0,0,0,0,.75Z"/><path class="cls-2" d="M3413.75,750.88a.38.38,0,0,0,0-.75.38.38,0,0,0,0,.75Z"/><path class="cls-2" d="M3341.75,784.63a.38.38,0,0,0,0-.75.38.38,0,0,0,0,.75Z"/><path class="cls-2" d="M3049.25,912.88a.38.38,0,0,0,0-.75.38.38,0,0,0,0,.75Z"/><path class="cls-2" d="M3040.25,933.13a.38.38,0,0,0,0-.75.38.38,0,0,0,0,.75Z"/><path class="cls-2" d="M2952.5,890.38a.38.38,0,0,0,0-.75.38.38,0,0,0,0,.75Z"/><path class="cls-2" d="M3024.5,838.63a.38.38,0,0,0,0-.75.38.38,0,0,0,0,.75Z"/><path class="cls-2" d="M3337.25,926.38a.38.38,0,0,0,0-.75.38.38,0,0,0,0,.75Z"/><path class="cls-2" d="M3542,1045.63a.38.38,0,0,0,0-.75.38.38,0,0,0,0,.75Z"/><path class="cls-2" d="M3688.25,755.38a.38.38,0,0,0,0-.75.38.38,0,0,0,0,.75Z"/><path class="cls-2" d="M3956,746.38a.38.38,0,0,0,0-.75.38.38,0,0,0,0,.75Z"/><path class="cls-2" d="M3967.25,802.63a.38.38,0,0,0,0-.75.38.38,0,0,0,0,.75Z"/><path class="cls-2" d="M3845.75,748.63a.38.38,0,0,0,0-.75.38.38,0,0,0,0,.75Z"/><path class="cls-2" d="M3899.75,683.38a.38.38,0,0,0,0-.75.38.38,0,0,0,0,.75Z"/><path class="cls-2" d="M3872.75,600.13a.38.38,0,0,0,0-.75.38.38,0,0,0,0,.75Z"/><path class="cls-2" d="M3960.5,516.88a.38.38,0,0,0,0-.75.38.38,0,0,0,0,.75Z"/><path class="cls-2" d="M3791.75,498.88a.38.38,0,0,0,0-.75.38.38,0,0,0,0,.75Z"/><path class="cls-2" d="M3767,476.38a.38.38,0,0,0,0-.75.38.38,0,0,0,0,.75Z"/><path class="cls-2" d="M3722,523.63a.38.38,0,0,0,0-.75.38.38,0,0,0,0,.75Z"/><path class="cls-2" d="M3821,550.63a.38.38,0,0,0,0-.75.38.38,0,0,0,0,.75Z"/><path class="cls-2" d="M3980.75,422.38a.38.38,0,0,0,0-.75.38.38,0,0,0,0,.75Z"/><path class="cls-2" d="M3706.25,341.38a.38.38,0,0,0,0-.75.38.38,0,0,0,0,.75Z"/><path class="cls-2" d="M2687,368.38a.38.38,0,0,0,0-.75.38.38,0,0,0,0,.75Z"/><path class="cls-2" d="M2594.75,451.63a.38.38,0,0,0,0-.75.38.38,0,0,0,0,.75Z"/><path class="cls-2" d="M2363,516.88a.38.38,0,0,0,0-.75.38.38,0,0,0,0,.75Z"/><path class="cls-2" d="M2241.5,775.63a.38.38,0,0,0,0-.75.38.38,0,0,0,0,.75Z"/><path class="cls-2" d="M2264,881.38a.38.38,0,0,0,0-.75.38.38,0,0,0,0,.75Z"/><path class="cls-2" d="M2340.5,892.63a.38.38,0,0,0,0-.75.38.38,0,0,0,0,.75Z"/><path class="cls-2" d="M2493.5,908.38a.38.38,0,0,0,0-.75.38.38,0,0,0,0,.75Z"/><path class="cls-2" d="M2502.5,636.13a.38.38,0,0,0,0-.75.38.38,0,0,0,0,.75Z"/><path class="cls-2" d="M2381,672.13a.38.38,0,0,0,0-.75.38.38,0,0,0,0,.75Z"/><path class="cls-2" d="M2500.25,708.13a.38.38,0,0,0,0-.75.38.38,0,0,0,0,.75Z"/><path class="cls-2" d="M2477.75,759.88a.38.38,0,0,0,0-.75.38.38,0,0,0,0,.75Z"/><path class="cls-2" d="M2675.75,789.13a.38.38,0,0,0,0-.75.38.38,0,0,0,0,.75Z"/><path class="cls-2" d="M2579,649.63a.38.38,0,0,0,0-.75.38.38,0,0,0,0,.75Z"/><path class="cls-2" d="M2509.25,523.63a.38.38,0,0,0,0-.75.38.38,0,0,0,0,.75Z"/><path class="cls-2" d="M2671.25,564.13a.38.38,0,0,0,0-.75.38.38,0,0,0,0,.75Z"/><path class="cls-2" d="M2590.25,498.88a.38.38,0,0,0,0-.75.38.38,0,0,0,0,.75Z"/><path class="cls-2" d="M2531.75,483.13a.38.38,0,0,0,0-.75.38.38,0,0,0,0,.75Z"/><path class="cls-2" d="M2606,318.88a.38.38,0,0,0,0-.75.38.38,0,0,0,0,.75Z"/><path class="cls-2" d="M2342.75,260.38a.38.38,0,0,0,0-.75.38.38,0,0,0,0,.75Z"/><path class="cls-2" d="M2189.75,325.63a.38.38,0,0,0,0-.75.38.38,0,0,0,0,.75Z"/><path class="cls-2" d="M2264,386.38a.38.38,0,0,0,0-.75.38.38,0,0,0,0,.75Z"/><path class="cls-2" d="M2414.75,339.13a.38.38,0,0,0,0-.75.38.38,0,0,0,0,.75Z"/><path class="cls-2" d="M2194.25,442.63a.38.38,0,0,0,0-.75.38.38,0,0,0,0,.75Z"/><path class="cls-2" d="M2048,498.88a.38.38,0,0,0,0-.75.38.38,0,0,0,0,.75Z"/><path class="cls-2" d="M2113.25,570.88a.38.38,0,0,0,0-.75.38.38,0,0,0,0,.75Z"/><path class="cls-2" d="M2050.25,611.38a.38.38,0,0,0,0-.75.38.38,0,0,0,0,.75Z"/><path class="cls-2" d="M2057,717.13a.38.38,0,0,0,0-.75.38.38,0,0,0,0,.75Z"/><path class="cls-2" d="M2257.25,665.38a.38.38,0,0,0,0-.75.38.38,0,0,0,0,.75Z"/><path class="cls-2" d="M2313.5,537.13a.38.38,0,0,0,0-.75.38.38,0,0,0,0,.75Z"/><path class="cls-2" d="M2187.5,132.13a.38.38,0,0,0,0-.75.38.38,0,0,0,0,.75Z"/><path class="cls-2" d="M2858,226.63a.38.38,0,0,0,0-.75.38.38,0,0,0,0,.75Z"/><path class="cls-2" d="M3420.5,267.13a.38.38,0,0,0,0-.75.38.38,0,0,0,0,.75Z"/><path class="cls-2" d="M3083,197.38a.38.38,0,0,0,0-.75.38.38,0,0,0,0,.75Z"/><path class="cls-2" d="M3251.75,204.13a.38.38,0,0,0,0-.75.38.38,0,0,0,0,.75Z"/><path class="cls-2" d="M3022.25,273.88a.38.38,0,0,0,0-.75.38.38,0,0,0,0,.75Z"/><path class="cls-2" d="M2896.25,237.88a.38.38,0,0,0,0-.75.38.38,0,0,0,0,.75Z"/><path class="cls-2" d="M3231.5,71.38a.38.38,0,0,0,0-.75.38.38,0,0,0,0,.75Z"/><path class="cls-2" d="M3519.5,51.13a.38.38,0,0,0,0-.75.38.38,0,0,0,0,.75Z"/><path class="cls-2" d="M3456.5,19.63a.38.38,0,0,0,0-.75.38.38,0,0,0,0,.75Z"/><path class="cls-2" d="M3508.25,84.88a.38.38,0,0,0,0-.75.38.38,0,0,0,0,.75Z"/><path class="cls-2" d="M3746.75,116.38a.38.38,0,0,0,0-.75.38.38,0,0,0,0,.75Z"/><path class="cls-2" d="M3591.5,741.88a.38.38,0,0,0,0-.75.38.38,0,0,0,0,.75Z"/><path class="cls-2" d="M3506,683.38a.38.38,0,0,0,0-.75.38.38,0,0,0,0,.75Z"/><path class="cls-2" d="M3650,669.88a.38.38,0,0,0,0-.75.38.38,0,0,0,0,.75Z"/><path class="cls-2" d="M3465.5,586.63a.38.38,0,0,0,0-.75.38.38,0,0,0,0,.75Z"/><path class="cls-2" d="M3238.25,582.13a.38.38,0,0,0,0-.75.38.38,0,0,0,0,.75Z"/><path class="cls-2" d="M3303.5,525.88a.38.38,0,0,0,0-.75.38.38,0,0,0,0,.75Z"/><path class="cls-2" d="M3371,487.63a.38.38,0,0,0,0-.75.38.38,0,0,0,0,.75Z"/><path class="cls-2" d="M3312.5,456.13a.38.38,0,0,0,0-.75.38.38,0,0,0,0,.75Z"/><path class="cls-2" d="M3706.25,456.5a.75.75,0,0,0,0-1.5.75.75,0,0,0,0,1.5Z"/><path class="cls-2" d="M3229.25,704a.75.75,0,0,0,0-1.5.75.75,0,0,0,0,1.5Z"/><path class="cls-2" d="M3373.25,674.75a.75.75,0,0,0,0-1.5.75.75,0,0,0,0,1.5Z"/><path class="cls-2" d="M3022.25,557.75a.75.75,0,0,0,0-1.5.75.75,0,0,0,0,1.5Z"/><path class="cls-2" d="M3168.5,528.5a.75.75,0,0,0,0-1.5.75.75,0,0,0,0,1.5Z"/><path class="cls-2" d="M3209,463.25a.75.75,0,0,0,0-1.5.75.75,0,0,0,0,1.5Z"/><path class="cls-2" d="M3521.75,420.5a.75.75,0,0,0,0-1.5.75.75,0,0,0,0,1.5Z"/><path class="cls-2" d="M3897.5,535.25a.75.75,0,0,0,0-1.5.75.75,0,0,0,0,1.5Z"/><path class="cls-2" d="M3668,591.5a.75.75,0,0,0,0-1.5.75.75,0,0,0,0,1.5Z"/><path class="cls-2" d="M3713,600.5a.75.75,0,0,0,0-1.5.75.75,0,0,0,0,1.5Z"/><path class="cls-2" d="M3616.25,994.25a.75.75,0,0,0,0-1.5.75.75,0,0,0,0,1.5Z"/><path class="cls-2" d="M3481.25,989.75a.75.75,0,0,0,0-1.5.75.75,0,0,0,0,1.5Z"/><path class="cls-2" d="M3350.75,1001a.75.75,0,0,0,0-1.5.75.75,0,0,0,0,1.5Z"/><path class="cls-2" d="M3350.75,1048.25a.75.75,0,0,0,0-1.5.75.75,0,0,0,0,1.5Z"/><path class="cls-2" d="M3474.5,1048.25a.75.75,0,0,0,0-1.5.75.75,0,0,0,0,1.5Z"/><path class="cls-2" d="M3112.25,890.75a.75.75,0,0,0,0-1.5.75.75,0,0,0,0,1.5Z"/><path class="cls-2" d="M3251.75,965a.75.75,0,0,0,0-1.5.75.75,0,0,0,0,1.5Z"/><path class="cls-2" d="M3614,780.5a.75.75,0,0,0,0-1.5.75.75,0,0,0,0,1.5Z"/><path class="cls-2" d="M3832.25,841.25a.75.75,0,0,0,0-1.5.75.75,0,0,0,0,1.5Z"/><path class="cls-2" d="M3731,679.25a.75.75,0,0,0,0-1.5.75.75,0,0,0,0,1.5Z"/><path class="cls-2" d="M3607.25,249.5a.75.75,0,0,0,0-1.5.75.75,0,0,0,0,1.5Z"/><path class="cls-2" d="M3796.25,193.25a.75.75,0,0,0,0-1.5.75.75,0,0,0,0,1.5Z"/><path class="cls-2" d="M3611.75,56a.75.75,0,0,0,0-1.5.75.75,0,0,0,0,1.5Z"/><path class="cls-2" d="M3940.25,49.25a.75.75,0,0,0,0-1.5.75.75,0,0,0,0,1.5Z"/><path class="cls-2" d="M2711.75,89.75a.75.75,0,0,0,0-1.5.75.75,0,0,0,0,1.5Z"/><path class="cls-2" d="M3744.5,371.38a1.13,1.13,0,0,0,0-2.25,1.13,1.13,0,0,0,0,2.25Z"/><path class="cls-2" d="M3440.75,857.38a1.13,1.13,0,0,0,0-2.25,1.13,1.13,0,0,0,0,2.25Z"/><path class="cls-2" d="M3236,861.88a1.13,1.13,0,0,0,0-2.25,1.13,1.13,0,0,0,0,2.25Z"/><path class="cls-2" d="M3323.75,708.88a1.13,1.13,0,0,0,0-2.25,1.13,1.13,0,0,0,0,2.25Z"/><path class="cls-2" d="M3591.5,528.88a1.13,1.13,0,0,0,0-2.25,1.13,1.13,0,0,0,0,2.25Z"/><path class="cls-2" d="M3852.5,384.88a1.13,1.13,0,0,0,0-2.25,1.13,1.13,0,0,0,0,2.25Z"/><path class="cls-2" d="M3924.5,423.13a1.13,1.13,0,0,0,0-2.25,1.13,1.13,0,0,0,0,2.25Z"/><path class="cls-2" d="M3605,432.13a1.13,1.13,0,0,0,0-2.25,1.13,1.13,0,0,0,0,2.25Z"/><path class="cls-2" d="M3578,364.63a1.13,1.13,0,0,0,0-2.25,1.13,1.13,0,0,0,0,2.25Z"/><path class="cls-2" d="M3589.25,234.5a1.5,1.5,0,0,0,0-3,1.5,1.5,0,0,0,0,3Z"/><path class="cls-2" d="M3719.75,358.25a1.5,1.5,0,0,0,0-3,1.5,1.5,0,0,0,0,3Z"/><path class="cls-2" d="M3773.75,457.25a1.5,1.5,0,0,0,0-3,1.5,1.5,0,0,0,0,3Z"/><path class="cls-2" d="M3690.5,502.25a1.5,1.5,0,0,0,0-3,1.5,1.5,0,0,0,0,3Z"/><path class="cls-2" d="M3627.5,302a1.5,1.5,0,0,0,0-3,1.5,1.5,0,0,0,0,3Z"/><path class="cls-2" d="M3956,270.5a1.5,1.5,0,0,0,0-3,1.5,1.5,0,0,0,0,3Z"/><path class="cls-2" d="M3958.25,187.25a1.5,1.5,0,0,0,0-3,1.5,1.5,0,0,0,0,3Z"/><path class="cls-2" d="M3481.25,124.25a1.5,1.5,0,0,0,0-3,1.5,1.5,0,0,0,0,3Z"/><path class="cls-2" d="M3677,115.25a1.5,1.5,0,0,0,0-3,1.5,1.5,0,0,0,0,3Z"/><path class="cls-2" d="M3852.5,50a1.5,1.5,0,0,0,0-3,1.5,1.5,0,0,0,0,3Z"/><path class="cls-2" d="M3204.5,864.5a1.5,1.5,0,0,0,0-3,1.5,1.5,0,0,0,0,3Z"/><path class="cls-2" d="M3517.25,961.25a1.5,1.5,0,0,0,0-3,1.5,1.5,0,0,0,0,3Z"/><path class="cls-2" d="M2822,1064.75a1.5,1.5,0,0,0,0-3,1.5,1.5,0,0,0,0,3Z"/><path class="cls-2" d="M3013.25,1069.25a1.5,1.5,0,0,0,0-3,1.5,1.5,0,0,0,0,3Z"/><path class="cls-2" d="M3152.75,1064.75a1.5,1.5,0,0,0,0-3,1.5,1.5,0,0,0,0,3Z"/><path class="cls-2" d="M3182,898.25a1.5,1.5,0,0,0,0-3,1.5,1.5,0,0,0,0,3Z"/><path class="cls-2" d="M2930,565.25a1.5,1.5,0,0,0,0-3,1.5,1.5,0,0,0,0,3Z"/><path class="cls-2" d="M2756.75,423.5a1.5,1.5,0,0,0,0-3,1.5,1.5,0,0,0,0,3Z"/><path class="cls-2" d="M3641,394.25a1.5,1.5,0,0,0,0-3,1.5,1.5,0,0,0,0,3Z"/><path class="cls-2" d="M3494.75,239a1.5,1.5,0,0,0,0-3,1.5,1.5,0,0,0,0,3Z"/><path class="cls-2" d="M3839,295.25a1.5,1.5,0,0,0,0-3,1.5,1.5,0,0,0,0,3Z"/><path class="cls-2" d="M3940.25,356a1.5,1.5,0,0,0,0-3,1.5,1.5,0,0,0,0,3Z"/><path class="cls-2" d="M3926.75,605.75a1.5,1.5,0,0,0,0-3,1.5,1.5,0,0,0,0,3Z"/><path class="cls-2" d="M3407,916.25a1.5,1.5,0,0,0,0-3,1.5,1.5,0,0,0,0,3Z"/><path class="cls-2" d="M3607.25,176a1.5,1.5,0,0,0,0-3,1.5,1.5,0,0,0,0,3Z"/><path class="cls-2" d="M3692.75,169.25a1.5,1.5,0,0,0,0-3,1.5,1.5,0,0,0,0,3Z"/><path class="cls-2" d="M3861.5,142.25a1.5,1.5,0,0,0,0-3,1.5,1.5,0,0,0,0,3Z"/><path class="cls-2" d="M2601.5,131a1.5,1.5,0,0,0,0-3,1.5,1.5,0,0,0,0,3Z"/><path class="cls-2" d="M4320,659.5a1.5,1.5,0,0,0,0-3,1.5,1.5,0,0,0,0,3Z"/><path class="cls-2" d="M4150,574.5a1.5,1.5,0,0,0,0-3,1.5,1.5,0,0,0,0,3Z"/><path class="cls-2" d="M4295,289.5a1.5,1.5,0,0,0,0-3,1.5,1.5,0,0,0,0,3Z"/><path class="cls-2" d="M4250,109.5a1.5,1.5,0,0,0,0-3,1.5,1.5,0,0,0,0,3Z"/><path class="cls-2" d="M4195,178.75a.75.75,0,0,0,0-1.5.75.75,0,0,0,0,1.5Z"/><path class="cls-2" d="M4300,163.75a.75.75,0,0,0,0-1.5.75.75,0,0,0,0,1.5Z"/><path class="cls-2" d="M4005,73.75a.75.75,0,0,0,0-1.5.75.75,0,0,0,0,1.5Z"/><path class="cls-2" d="M4285,473.38a.38.38,0,0,0,0-.75.38.38,0,0,0,0,.75Z"/><path class="cls-2" d="M4070,393.38a.38.38,0,0,0,0-.75.38.38,0,0,0,0,.75Z"/><path class="cls-2" d="M3960,753.38a.38.38,0,0,0,0-.75.38.38,0,0,0,0,.75Z"/><path class="cls-2" d="M3720,748.38a.38.38,0,0,0,0-.75.38.38,0,0,0,0,.75Z"/><path class="cls-2" d="M4330,843.38a.38.38,0,0,0,0-.75.38.38,0,0,0,0,.75Z"/><path class="cls-2" d="M4115,678.38a.38.38,0,0,0,0-.75.38.38,0,0,0,0,.75Z"/><path class="cls-2" d="M4275,588.38a.38.38,0,0,0,0-.75.38.38,0,0,0,0,.75Z"/><path class="cls-2" d="M4180,388.38a.38.38,0,0,0,0-.75.38.38,0,0,0,0,.75Z"/><path class="cls-2" d="M4030,223.38a.38.38,0,0,0,0-.75.38.38,0,0,0,0,.75Z"/><path class="cls-2" d="M4390,163.38a.38.38,0,0,0,0-.75.38.38,0,0,0,0,.75Z"/><path class="cls-2" d="M495,948.38a.38.38,0,0,0,0-.75.38.38,0,0,0,0,.75Z"/><path class="cls-2" d="M130,953.38a.38.38,0,0,0,0-.75.38.38,0,0,0,0,.75Z"/><path class="cls-2" d="M420,1018.38a.38.38,0,0,0,0-.75.38.38,0,0,0,0,.75Z"/><path class="cls-2" d="M4290,843.38a.38.38,0,0,0,0-.75.38.38,0,0,0,0,.75Z"/><path class="cls-2" d="M4370,903.38a.38.38,0,0,0,0-.75.38.38,0,0,0,0,.75Z"/><path class="cls-2" d="M4380,638.38a.38.38,0,0,0,0-.75.38.38,0,0,0,0,.75Z"/><path class="cls-2" d="M4380,443.38a.38.38,0,0,0,0-.75.38.38,0,0,0,0,.75Z"/><path class="cls-2" d="M4055,493.38a.38.38,0,0,0,0-.75.38.38,0,0,0,0,.75Z"/><path class="cls-2" d="M4000,608.38a.38.38,0,0,0,0-.75.38.38,0,0,0,0,.75Z"/><path class="cls-2" d="M4240,548.38a.38.38,0,0,0,0-.75.38.38,0,0,0,0,.75Z"/><path class="cls-2" d="M4145,713.38a.38.38,0,0,0,0-.75.38.38,0,0,0,0,.75Z"/><path class="cls-2" d="M4030,718.38a.38.38,0,0,0,0-.75.38.38,0,0,0,0,.75Z"/><path class="cls-2" d="M4060,583.38a.38.38,0,0,0,0-.75.38.38,0,0,0,0,.75Z"/><path class="cls-2" d="M3840,668.38a.38.38,0,0,0,0-.75.38.38,0,0,0,0,.75Z"/><path class="cls-2" d="M3960,693.38a.38.38,0,0,0,0-.75.38.38,0,0,0,0,.75Z"/><path class="cls-2" d="M3845,768.38a.38.38,0,0,0,0-.75.38.38,0,0,0,0,.75Z"/><path class="cls-2" d="M4265,323.38a.38.38,0,0,0,0-.75.38.38,0,0,0,0,.75Z"/><path class="cls-2" d="M4090,233.38a.38.38,0,0,0,0-.75.38.38,0,0,0,0,.75Z"/><path class="cls-2" d="M4085,113.38a.38.38,0,0,0,0-.75.38.38,0,0,0,0,.75Z"/><path class="cls-2" d="M4230,53.38a.38.38,0,0,0,0-.75.38.38,0,0,0,0,.75Z"/><path class="cls-2" d="M4420,53.38a.38.38,0,0,0,0-.75.38.38,0,0,0,0,.75Z"/><path class="cls-2" d="M3455,753.38a.38.38,0,0,0,0-.75.38.38,0,0,0,0,.75Z"/><path class="cls-2" d="M3480,618.38a.38.38,0,0,0,0-.75.38.38,0,0,0,0,.75Z"/><path class="cls-2" d="M3395,128.38a.38.38,0,0,0,0-.75.38.38,0,0,0,0,.75Z"/><path class="cls-2" d="M4290,713.38a.38.38,0,0,0,0-.75.38.38,0,0,0,0,.75Z"/><path class="cls-2" d="M3955,728.38a.38.38,0,0,0,0-.75.38.38,0,0,0,0,.75Z"/><path class="cls-2" d="M4000,698.38a.38.38,0,0,0,0-.75.38.38,0,0,0,0,.75Z"/><path class="cls-2" d="M4175,673.38a.38.38,0,0,0,0-.75.38.38,0,0,0,0,.75Z"/><path class="cls-2" d="M4065,793.38a.38.38,0,0,0,0-.75.38.38,0,0,0,0,.75Z"/><path class="cls-2" d="M2770,1008.38a.38.38,0,0,0,0-.75.38.38,0,0,0,0,.75Z"/><path class="cls-2" d="M2955,938.38a.38.38,0,0,0,0-.75.38.38,0,0,0,0,.75Z"/><path class="cls-2" d="M3170,593.38a.38.38,0,0,0,0-.75.38.38,0,0,0,0,.75Z"/><path class="cls-2" d="M3495,273.38a.38.38,0,0,0,0-.75.38.38,0,0,0,0,.75Z"/><path class="cls-2" d="M3880,203.38a.38.38,0,0,0,0-.75.38.38,0,0,0,0,.75Z"/><path class="cls-2" d="M4355,298.38a.38.38,0,0,0,0-.75.38.38,0,0,0,0,.75Z"/><path class="cls-2" d="M4325,208.38a.38.38,0,0,0,0-.75.38.38,0,0,0,0,.75Z"/><path class="cls-2" d="M4200,203.38a.38.38,0,0,0,0-.75.38.38,0,0,0,0,.75Z"/><path class="cls-2" d="M4185,333.38a.38.38,0,0,0,0-.75.38.38,0,0,0,0,.75Z"/><path class="cls-2" d="M4025,338.38a.38.38,0,0,0,0-.75.38.38,0,0,0,0,.75Z"/><path class="cls-2" d="M4125,323.38a.38.38,0,0,0,0-.75.38.38,0,0,0,0,.75Z"/><path class="cls-2" d="M3225,78.38a.38.38,0,0,0,0-.75.38.38,0,0,0,0,.75Z"/><path class="cls-2" d="M3475,43.38a.38.38,0,0,0,0-.75.38.38,0,0,0,0,.75Z"/><path class="cls-2" d="M4305,93.38a.38.38,0,0,0,0-.75.38.38,0,0,0,0,.75Z"/><path class="cls-2" d="M4375,413.38a.38.38,0,0,0,0-.75.38.38,0,0,0,0,.75Z"/><path class="cls-2" d="M4320,388.38a.38.38,0,0,0,0-.75.38.38,0,0,0,0,.75Z"/><path class="cls-2" d="M4425,338.38a.38.38,0,0,0,0-.75.38.38,0,0,0,0,.75Z"/><path class="cls-2" d="M4280,458.38a.38.38,0,0,0,0-.75.38.38,0,0,0,0,.75Z"/><path class="cls-2" d="M4140,418.38a.38.38,0,0,0,0-.75.38.38,0,0,0,0,.75Z"/><path class="cls-2" d="M4080,478.38a.38.38,0,0,0,0-.75.38.38,0,0,0,0,.75Z"/><path class="cls-2" d="M4185,518.38a.38.38,0,0,0,0-.75.38.38,0,0,0,0,.75Z"/><path class="cls-2" d="M4180,468.38a.38.38,0,0,0,0-.75.38.38,0,0,0,0,.75Z"/><path class="cls-2" d="M4115,493.38a.38.38,0,0,0,0-.75.38.38,0,0,0,0,.75Z"/><path class="cls-2" d="M4145,503.38a.38.38,0,0,0,0-.75.38.38,0,0,0,0,.75Z"/><path class="cls-2" d="M4295,493.38a.38.38,0,0,0,0-.75.38.38,0,0,0,0,.75Z"/><path class="cls-2" d="M4225,398.38a.38.38,0,0,0,0-.75.38.38,0,0,0,0,.75Z"/><path class="cls-2" d="M3995,123.38a.38.38,0,0,0,0-.75.38.38,0,0,0,0,.75Z"/><path class="cls-2" d="M4405,158.38a.38.38,0,0,0,0-.75.38.38,0,0,0,0,.75Z"/><path class="cls-2" d="M3680,258.38a.38.38,0,0,0,0-.75.38.38,0,0,0,0,.75Z"/><path class="cls-2" d="M3935,108.38a.38.38,0,0,0,0-.75.38.38,0,0,0,0,.75Z"/><path class="cls-2" d="M4090,163.38a.38.38,0,0,0,0-.75.38.38,0,0,0,0,.75Z"/><path class="cls-2" d="M3840,423.38a.38.38,0,0,0,0-.75.38.38,0,0,0,0,.75Z"/><path class="cls-2" d="M4005,393.38a.38.38,0,0,0,0-.75.38.38,0,0,0,0,.75Z"/><path class="cls-2" d="M4080,173.38a.38.38,0,0,0,0-.75.38.38,0,0,0,0,.75Z"/><path class="cls-2" d="M4235,388.38a.38.38,0,0,0,0-.75.38.38,0,0,0,0,.75Z"/><path class="cls-2" d="M4005,583.38a.38.38,0,0,0,0-.75.38.38,0,0,0,0,.75Z"/><path class="cls-2" d="M4285,278.38a.38.38,0,0,0,0-.75.38.38,0,0,0,0,.75Z"/><path class="cls-2" d="M3270,388.38a.38.38,0,0,0,0-.75.38.38,0,0,0,0,.75Z"/><path class="cls-2" d="M2730,238.38a.38.38,0,0,0,0-.75.38.38,0,0,0,0,.75Z"/><path class="cls-2" d="M2680,538.38a.38.38,0,0,0,0-.75.38.38,0,0,0,0,.75Z"/><path class="cls-2" d="M2685,793.38a.38.38,0,0,0,0-.75.38.38,0,0,0,0,.75Z"/><path class="cls-2" d="M2925,703.38a.38.38,0,0,0,0-.75.38.38,0,0,0,0,.75Z"/><path class="cls-2" d="M2645,658.38a.38.38,0,0,0,0-.75.38.38,0,0,0,0,.75Z"/><path class="cls-2" d="M2925,673.38a.38.38,0,0,0,0-.75.38.38,0,0,0,0,.75Z"/><path class="cls-2" d="M2800,813.38a.38.38,0,0,0,0-.75.38.38,0,0,0,0,.75Z"/><path class="cls-2" d="M2800,758.38a.38.38,0,0,0,0-.75.38.38,0,0,0,0,.75Z"/><path class="cls-2" d="M2840,773.38a.38.38,0,0,0,0-.75.38.38,0,0,0,0,.75Z"/><path class="cls-2" d="M2915,893.38a.38.38,0,0,0,0-.75.38.38,0,0,0,0,.75Z"/><path class="cls-2" d="M3150,878.38a.38.38,0,0,0,0-.75.38.38,0,0,0,0,.75Z"/><path class="cls-2" d="M3235,568.38a.38.38,0,0,0,0-.75.38.38,0,0,0,0,.75Z"/><path class="cls-2" d="M3135,508.38a.38.38,0,0,0,0-.75.38.38,0,0,0,0,.75Z"/><path class="cls-2" d="M3100,413.38a.38.38,0,0,0,0-.75.38.38,0,0,0,0,.75Z"/><path class="cls-2" d="M2855,418.38a.38.38,0,0,0,0-.75.38.38,0,0,0,0,.75Z"/><path class="cls-2" d="M2830,628.38a.38.38,0,0,0,0-.75.38.38,0,0,0,0,.75Z"/><path class="cls-2" d="M3030,648.38a.38.38,0,0,0,0-.75.38.38,0,0,0,0,.75Z"/></g></svg>